<?xml version="1.0" encoding="utf-8"?>
<svg xmlns="http://www.w3.org/2000/svg" xmlns:svg="http://www.w3.org/2000/svg" height="360" version="1.1" width="360">
	<title>The Vancouver Public Library logo</title>
	<desc>The logo portrays the letters V, P, and L in slightly angled squares with the words Vancouver Public Library below them.</desc>
	<path d="m 63.7,96.9 h -8.6 l 14.1,39 14,-39 h -8.6 v -2.1 h 16.8 l -4.8,-13.2 -36,13.2 h 13 v 2.1 z"/>
	<polygon points="66.5,151.7 64,151.7 44.2,97.2 25.8,103.9 48.1,164.8 108.9,142.5 92.3,96.9 85.8,96.9 "/>
	<polygon points="132,148.3 132,96.9 124.6,96.9 116.1,145.4 "/>
	<path d="m 191,93 -63.6,-11.3 -2.3,13.2 h 25.6 c 10.5,0 23.1,2.2 23.1,15.3 0,11.7 -12.1,15 -21.7,15 h -9.4 v 23.1 h 8.8 v 2.1 h -7.4 l 35.7,6.3 L 191,93 Z"/>
	<path d="m 142.7,96.9 h 9.6 c 9.4,0 9.7,7.1 9.7,13.2 0,6.8 -1.7,13 -9.7,13 h -9.6 V 96.9 Z"/>
	<polygon points="211.6,148.3 211.7,148.3 211.7,96.9 200.3,99.6 "/>
	<path d="M 278.1,148 263.5,84.9 220.7,94.8 H 231 v 2.1 h -8.6 v 51.4 h 10.9 c 10.6,0 14.3,-7.1 14.7,-16.6 h 2.5 l -0.8,18.7 h -37.5 l 2.8,12.2 63.1,-14.6 z"/>
	<polygon points="140.9,202.1 138.1,202.1 144.1,220 144.1,220 150,202.1 146.7,202.1 146.7,201.3 153.4,201.3 153.4,202.1 151,202.1 143.4,225.8 142.4,225.8 134.4,202.1 131.8,202.1 131.8,201.3 140.9,201.3 "/>
	<path d="m 160.3,221.1 c 0,1.5 -0.5,1.9 -0.8,2.2 -0.9,0.7 -1.6,1 -2.7,1 -1.7,0 -2.8,-1.1 -2.8,-2.8 0,-3.3 4,-3.7 6.3,-3.7 v 3.3 z m 4.9,1.7 c -0.2,0.6 -0.6,1.6 -1.2,1.6 -0.8,0 -0.8,-0.6 -0.8,-1.7 v -8.6 c 0,-1.4 0,-3.5 -4.9,-3.5 -4.3,0 -5.8,2.2 -5.8,3.5 0,1 0.5,1.7 1.5,1.7 0.9,0 1.4,-0.6 1.4,-1.5 0,-1.2 -1.1,-1.4 -1.1,-1.7 0,-1 2.6,-1.3 3.4,-1.3 1.2,0 2.6,0.5 2.6,2.2 v 3.5 c -5.5,0 -8.8,1.9 -8.9,5.2 0,2.7 1.9,3.5 4.1,3.5 1.9,0 3.7,-0.6 4.9,-2.2 0.2,1.4 1,2.2 2.3,2.2 1.7,0 3,-1.2 3,-2.9 h -0.5 z"/>
	<path d="m 169.1,211.9 h -1.9 V 211 h 0.7 c 0.7,0 1.4,0 2,-0.1 0.7,0 1.4,-0.1 2,-0.3 v 3.8 h 0.1 c 1,-2.2 2.4,-3.8 5.1,-3.8 1.3,0 4.2,0.3 4.2,3.6 v 10.2 h 1.9 v 0.8 h -6.6 v -0.8 h 1.9 v -9.7 c 0,-2.7 -0.8,-3 -2.2,-3 -2.4,0 -4.4,3.3 -4.4,6 v 6.7 h 2 v 0.8 h -6.8 v -0.8 h 1.9 v -12.5 z"/>
	<path d="m 198.5,220.8 c -0.9,2.6 -2.3,4.8 -6,4.9 -5.6,0 -7.3,-4.6 -7.3,-7.1 0,-6.4 5.1,-8 7.2,-8 2.4,0 5.7,1.1 5.7,3.9 0,0.9 -0.6,1.9 -1.7,1.9 -0.9,0 -1.7,-0.6 -1.7,-1.7 0,-1.4 1.2,-1.6 1.2,-2 0,-0.9 -2.3,-1.4 -3.1,-1.4 -3.5,0 -4.4,2.5 -4.4,7.3 0,2.2 0.6,3.8 0.8,4.3 0.5,1.2 1.7,1.9 3.5,2 2.1,0.1 4.1,-1.6 5,-4.2 h 0.8 z"/>
	<path d="m 208,211.4 c 3.6,0 3.7,3.8 3.7,6.8 0,3 -0.1,6.8 -3.7,6.8 -3.7,0 -3.7,-3.8 -3.7,-6.8 0,-3 0,-6.8 3.7,-6.8 z m 0,-0.7 c -3.8,0 -7,3.2 -7,7.6 0,4.3 3.2,7.5 7,7.5 3.7,0 6.9,-3.2 6.9,-7.5 0,-4.5 -3.1,-7.6 -6.9,-7.6 z"/>
	<path d="m 232.9,225.3 h -0.8 c -1.3,0 -2.6,0.1 -3.9,0.3 v -2.9 h -0.1 c -0.9,1.9 -2.9,3.1 -5.3,3.1 -3.5,0 -4.2,-1.7 -4.2,-3.5 v -10.4 h -1.9 V 211 h 0.7 c 1.3,0 2.7,0 4,-0.4 V 222 c 0,2.2 1.2,2.7 2.2,2.7 2.5,0 4.3,-2.2 4.3,-4.8 v -8.1 h -2 V 211 h 0.8 c 1.4,0 2.7,0 4,-0.4 v 13.8 h 2.1 v 0.9 z"/>
	<polygon points="241.1,211 241.1,211.9 239.3,211.9 242.7,222.2 242.8,222.2 246.4,211.9 244.2,211.9 244.2,211 249.1,211 249.1,211.9 247.4,211.9 242.4,225.7 241.2,225.7 236.4,211.9 234.6,211.9 234.6,211 "/>
	<path d="m 254.6,216.1 c 0,-0.9 0.1,-1.7 0.4,-2.4 0.1,-0.3 1,-2.3 3.2,-2.3 1.8,0 3.3,0.9 3.3,3.5 v 1.2 h -6.9 z m 9.3,4.7 c -0.5,2.4 -2.9,4.2 -5,4.2 -3.9,0 -4.4,-2.9 -4.4,-6.4 v -1.5 h 10.2 c 0,-3.9 -2.7,-6.4 -6.4,-6.4 -4.3,0 -7.1,3.9 -7.1,8.1 0,4 3.5,6.9 7.2,6.9 3.2,0 5.6,-1.6 6.3,-4.9 h -0.8 z"/>
	<path d="m 271.8,214.1 v 0 c 0.7,-1.6 2.2,-3.4 4.2,-3.4 1.2,0 2.2,0.6 2.2,2 0,0.9 -0.9,1.4 -1.7,1.4 -0.6,0 -1.4,-0.7 -1.4,-1.4 0,-0.3 0.1,-0.6 0.1,-0.8 0,-0.2 -0.2,-0.2 -0.3,-0.2 -0.1,0 -1.3,0.5 -2.1,2.2 -0.5,1 -0.9,2.4 -0.9,3.9 v 6.8 h 2.7 v 0.8 h -8 v -0.8 H 269 V 212 h -2.4 v -1 h 1.1 c 1.4,0 2.7,0 4,-0.4 v 3.5 z"/>
	<path d="m 138.6,248 h 1 c 4.9,0 7.2,0.4 7.2,5.5 0,4 -1.1,6.2 -7,6.2 h -1.2 V 248 Z m -6.3,0 h 2.8 v 22.5 H 132 v 0.8 h 9.8 v -0.8 h -3.2 v -10 h 1.7 c 7.6,0 10.3,-3.9 10.3,-6.8 0,-3.2 -2.1,-6.4 -8.8,-6.4 h -9.6 v 0.7 z"/>
	<path d="m 168,271.3 h -0.8 c -1.3,0 -2.6,0.1 -3.9,0.3 v -3 h -0.1 c -0.9,2 -2.9,3.2 -5.3,3.2 -3.5,0 -4.2,-1.7 -4.2,-3.5 v -10.4 h -1.9 V 257 h 0.7 c 1.4,0 2.7,0 4,-0.4 V 268 c 0,2.2 1.2,2.7 2.2,2.7 2.5,0 4.3,-2.1 4.3,-4.7 v -8.1 h -2 V 257 h 0.8 c 1.4,0 2.7,0 4,-0.4 v 13.8 h 2.1 v 0.9 z"/>
	<path d="m 174.9,260.9 c 0.1,-1.1 1.7,-3.5 4.1,-3.5 3.4,0 3.5,4 3.5,6.7 0,2.8 0,6.9 -3.5,6.9 -1.1,0 -4.3,-0.6 -4.3,-5.1 0,-0.9 0,-4 0.2,-5 z m -0.1,-14.7 c -1.3,0.3 -2.7,0.4 -4,0.4 h -0.9 v 0.8 h 2.1 v 23.1 h -2.1 v 0.9 c 1.6,0 3.2,0.2 4.8,0.4 v -2.6 h 0.1 c 0.9,1.4 2.4,2.7 4.2,2.7 3.7,0 6.8,-3.1 6.8,-7.5 0,-3.2 -1.9,-7.6 -6.8,-7.6 -1.7,0 -3.4,1.2 -4,2.5 h -0.1 v -13.1 z"/>
	<path d="m 187.7,271.3 v -0.8 h 2.7 v -23.2 h -2.7 v -0.8 h 1.5 c 1.4,0 2.7,-0.1 4,-0.4 v 24.3 h 2.8 v 0.8 h -8.3 z"/>
	<path d="m 198.1,271.3 v -0.8 h 2.4 v -12.6 h -2.4 V 257 h 1.2 c 1.4,0 2.7,0 4,-0.4 v 13.8 h 2.2 v 0.8 h -7.4 z m 3.8,-23.8 c 0.9,0 1.8,0.8 1.8,1.7 0,1.2 -0.7,1.9 -1.8,1.9 -1,0 -1.7,-0.9 -1.7,-1.9 0,-0.9 0.8,-1.7 1.7,-1.7 z"/>
	<path d="m 221.5,266.8 c -0.8,2.5 -2.2,4.8 -6,4.9 -5.5,0 -7.3,-4.6 -7.3,-7.1 0,-6.4 5.2,-8 7.2,-8 2.4,0 5.7,1.1 5.7,3.9 0,0.9 -0.6,1.9 -1.6,1.9 -1,0 -1.7,-0.6 -1.7,-1.7 0,-1.4 1.2,-1.6 1.2,-2 0,-0.9 -2.3,-1.4 -3.1,-1.4 -3.5,0 -4.4,2.5 -4.4,7.3 0,2.1 0.6,3.7 0.8,4.2 0.6,1.2 1.7,1.9 3.5,2.1 2.2,0.1 4.2,-1.6 5,-4.2 h 0.7 z"/>
	<path d="m 233.3,271.3 v -0.8 h 3 V 248 h -3 v -0.8 h 9.7 v 0.8 h -3.3 v 22.5 h 6.5 c 3,0 4.3,-3.6 4.8,-5.9 h 0.7 l -0.4,6.7 h -18 z"/>
	<path d="m 253.2,271.3 v -0.8 h 2.4 v -12.6 h -2.4 V 257 h 1.2 c 1.4,0 2.7,0 4,-0.4 v 13.8 h 2.2 v 0.8 h -7.4 z m 3.7,-23.8 c 0.9,0 1.8,0.8 1.8,1.7 0,1.2 -0.8,1.9 -1.8,1.9 -1,0 -1.7,-0.9 -1.7,-1.9 0,-0.9 0.8,-1.7 1.7,-1.7 z"/>
	<path d="m 267.8,260.9 c 0.1,-1.1 1.7,-3.5 4.1,-3.5 3.5,0 3.6,4 3.6,6.7 0,2.8 0,6.9 -3.6,6.9 -1.1,0 -4.3,-0.6 -4.3,-5.1 0,-0.9 0.1,-4 0.2,-5 z m 0,-14.7 c -1.3,0.3 -2.7,0.4 -4,0.4 h -0.9 v 0.8 h 2.1 v 23.1 h -2.1 v 0.9 c 1.6,0 3.2,0.2 4.8,0.4 v -2.6 h 0.1 c 0.9,1.4 2.4,2.7 4.2,2.7 3.8,0 6.8,-3.1 6.8,-7.5 0,-3.2 -1.9,-7.6 -6.9,-7.6 -1.7,0 -3.4,1.2 -4,2.5 h -0.1 v -13.1 z"/>
	<path d="m 285.9,260.1 v 0 c 0.7,-1.6 2.2,-3.4 4.1,-3.4 1.2,0 2.2,0.6 2.2,2 0,0.9 -0.9,1.4 -1.7,1.4 -0.6,0 -1.4,-0.7 -1.4,-1.4 0,-0.3 0.1,-0.6 0.1,-0.8 0,-0.2 -0.2,-0.2 -0.4,-0.2 0,0 -1.2,0.5 -2,2.2 -0.5,1 -0.9,2.4 -0.9,3.9 v 6.8 h 2.8 v 0.8 h -8.1 v -0.8 H 283 V 258 h -2.4 v -1 h 1.2 c 1.3,0 2.7,0 4,-0.4 v 3.5 z"/>
	<path d="m 302.3,267.1 c 0,1.5 -0.5,1.9 -0.8,2.2 -0.9,0.7 -1.7,1 -2.8,1 -1.7,0 -2.7,-1.1 -2.7,-2.8 0,-3.3 4,-3.7 6.3,-3.7 v 3.3 z m 4.8,1.7 c -0.2,0.6 -0.6,1.6 -1.3,1.6 -0.7,0 -0.7,-0.6 -0.7,-1.7 v -8.6 c 0,-1.4 0,-3.5 -4.9,-3.5 -4.3,0 -5.8,2.2 -5.8,3.5 0,1 0.6,1.7 1.5,1.7 0.9,0 1.5,-0.6 1.5,-1.5 0,-1.2 -1.1,-1.4 -1.1,-1.7 0,-1 2.5,-1.3 3.3,-1.3 1.3,0 2.7,0.5 2.7,2.2 v 3.5 c -5.5,0 -8.9,1.8 -9,5.2 0,2.6 1.9,3.5 4.2,3.5 1.8,0 3.6,-0.6 4.8,-2.2 0.3,1.3 1,2.2 2.4,2.2 1.7,0 3,-1.2 3,-2.9 h -0.6 z"/>
	<path d="m 313.8,260.1 v 0 c 0.7,-1.6 2.2,-3.4 4.2,-3.4 1.2,0 2.2,0.6 2.2,2 0,0.9 -0.9,1.4 -1.7,1.4 -0.6,0 -1.4,-0.7 -1.4,-1.4 0,-0.3 0.1,-0.6 0.1,-0.8 0,-0.2 -0.2,-0.2 -0.3,-0.2 -0.1,0 -1.3,0.5 -2.1,2.2 -0.5,1 -0.9,2.4 -0.9,3.9 v 6.8 h 2.7 v 0.8 h -8 v -0.8 H 311 V 258 h -2.4 v -1 h 1.1 c 1.4,0 2.7,0 4,-0.4 v 3.5 z"/>
	<path d="m 333.4,257.9 -5.7,15.8 c -1.2,3.5 -2.3,5.8 -4.6,5.8 -0.8,0 -1.7,-0.7 -1.7,-1.6 0,-0.9 0.6,-1.5 1.4,-1.5 1.4,0 1.5,1.3 1.9,1.3 0.6,0 0.9,-0.9 1.4,-2.2 0.3,-0.6 0.7,-1.7 1.5,-4.1 L 322.1,258 h -1.7 v -1 h 6.9 v 0.9 H 325 l 4,9.6 3.5,-9.6 h -2.3 V 257 h 5.1 v 0.9 h -1.9 z"/>
</svg>
